<mxfile host="app.diagrams.net" modified="2021-07-31T15:58:44.917Z" agent="5.0 (Windows NT 10.0; Win64; x64) AppleWebKit/537.36 (KHTML, like Gecko) Chrome/92.0.4515.107 Safari/537.36" etag="lY1ntoshkfv3mVx2Orq5" version="14.9.2" type="github">
  <diagram id="4zSN8lwY3elK46RT1d_3" name="Page-1">
    <mxGraphModel dx="1182" dy="675" grid="1" gridSize="10" guides="1" tooltips="1" connect="1" arrows="1" fold="1" page="1" pageScale="1" pageWidth="827" pageHeight="1169" math="0" shadow="0">
      <root>
        <mxCell id="0" />
        <mxCell id="1" parent="0" />
        <mxCell id="emCAjgcez_gLHUzwjltf-2" value="" style="rounded=0;html=1;jettySize=auto;orthogonalLoop=1;fontSize=11;endArrow=block;endFill=0;endSize=8;strokeWidth=1;shadow=0;labelBackgroundColor=none;edgeStyle=orthogonalEdgeStyle;entryX=0.5;entryY=0;entryDx=0;entryDy=0;" edge="1" parent="1" source="emCAjgcez_gLHUzwjltf-3" target="emCAjgcez_gLHUzwjltf-24">
          <mxGeometry relative="1" as="geometry">
            <mxPoint x="240" y="220" as="targetPoint" />
          </mxGeometry>
        </mxCell>
        <mxCell id="emCAjgcez_gLHUzwjltf-3" value="Stáhni a otevři textový soubor&amp;nbsp; dictionary.txt" style="rounded=1;whiteSpace=wrap;html=1;fontSize=12;glass=0;strokeWidth=1;shadow=0;fillColor=#fff2cc;strokeColor=#d6b656;" vertex="1" parent="1">
          <mxGeometry x="150" y="130" width="180" height="40" as="geometry" />
        </mxCell>
        <mxCell id="emCAjgcez_gLHUzwjltf-5" value="" style="edgeStyle=orthogonalEdgeStyle;rounded=0;orthogonalLoop=1;jettySize=auto;html=1;" edge="1" parent="1" source="emCAjgcez_gLHUzwjltf-6" target="emCAjgcez_gLHUzwjltf-3">
          <mxGeometry relative="1" as="geometry" />
        </mxCell>
        <mxCell id="emCAjgcez_gLHUzwjltf-6" value="" style="strokeWidth=2;html=1;shape=mxgraph.flowchart.start_2;whiteSpace=wrap;fillColor=#4D4D4D;" vertex="1" parent="1">
          <mxGeometry x="220" y="60" width="40" height="40" as="geometry" />
        </mxCell>
        <mxCell id="emCAjgcez_gLHUzwjltf-7" value="" style="shape=ellipse;html=1;dashed=0;whitespace=wrap;aspect=fixed;strokeWidth=5;perimeter=ellipsePerimeter;fillColor=#4D4D4D;" vertex="1" parent="1">
          <mxGeometry x="222.5" y="740" width="35" height="35" as="geometry" />
        </mxCell>
        <mxCell id="emCAjgcez_gLHUzwjltf-8" value="" style="edgeStyle=orthogonalEdgeStyle;rounded=0;orthogonalLoop=1;jettySize=auto;html=1;" edge="1" parent="1" source="emCAjgcez_gLHUzwjltf-9" target="emCAjgcez_gLHUzwjltf-7">
          <mxGeometry relative="1" as="geometry" />
        </mxCell>
        <mxCell id="emCAjgcez_gLHUzwjltf-9" value="Uzavři soubor" style="rounded=1;whiteSpace=wrap;html=1;fontSize=12;glass=0;strokeWidth=1;shadow=0;fillColor=#fff2cc;strokeColor=#d6b656;" vertex="1" parent="1">
          <mxGeometry x="180" y="660" width="120" height="40" as="geometry" />
        </mxCell>
        <mxCell id="emCAjgcez_gLHUzwjltf-12" value="" style="edgeStyle=orthogonalEdgeStyle;rounded=0;orthogonalLoop=1;jettySize=auto;html=1;exitX=0.5;exitY=1;exitDx=0;exitDy=0;" edge="1" parent="1" target="emCAjgcez_gLHUzwjltf-14">
          <mxGeometry relative="1" as="geometry">
            <mxPoint x="240" y="380" as="sourcePoint" />
          </mxGeometry>
        </mxCell>
        <mxCell id="emCAjgcez_gLHUzwjltf-13" value="Ano" style="text;html=1;strokeColor=none;fillColor=none;align=center;verticalAlign=middle;whiteSpace=wrap;rounded=0;" vertex="1" parent="1">
          <mxGeometry x="300" y="350" width="40" height="20" as="geometry" />
        </mxCell>
        <mxCell id="emCAjgcez_gLHUzwjltf-14" value="Je slovo poslení" style="rhombus;whiteSpace=wrap;html=1;shadow=0;fontFamily=Helvetica;fontSize=12;align=center;strokeWidth=1;spacing=6;spacingTop=-4;fillColor=#f8cecc;strokeColor=#b85450;" vertex="1" parent="1">
          <mxGeometry x="190" y="530" width="100" height="80" as="geometry" />
        </mxCell>
        <mxCell id="emCAjgcez_gLHUzwjltf-16" value="Čti slovo ze souboru" style="rounded=1;whiteSpace=wrap;html=1;fontSize=12;glass=0;strokeWidth=1;shadow=0;fillColor=#fff2cc;strokeColor=#d6b656;" vertex="1" parent="1">
          <mxGeometry x="150" y="270" width="180" height="40" as="geometry" />
        </mxCell>
        <mxCell id="emCAjgcez_gLHUzwjltf-18" value="" style="endArrow=classic;html=1;entryX=1;entryY=0.5;entryDx=0;entryDy=0;exitX=1;exitY=0.5;exitDx=0;exitDy=0;" edge="1" parent="1" target="emCAjgcez_gLHUzwjltf-16" source="emCAjgcez_gLHUzwjltf-14">
          <mxGeometry width="50" height="50" relative="1" as="geometry">
            <mxPoint x="290" y="460" as="sourcePoint" />
            <mxPoint x="400" y="360" as="targetPoint" />
            <Array as="points">
              <mxPoint x="470" y="570" />
              <mxPoint x="470" y="430" />
              <mxPoint x="470" y="290" />
            </Array>
          </mxGeometry>
        </mxCell>
        <mxCell id="emCAjgcez_gLHUzwjltf-20" value="" style="endArrow=classic;html=1;" edge="1" parent="1">
          <mxGeometry width="50" height="50" relative="1" as="geometry">
            <mxPoint x="240" y="610" as="sourcePoint" />
            <mxPoint x="240" y="660" as="targetPoint" />
          </mxGeometry>
        </mxCell>
        <mxCell id="emCAjgcez_gLHUzwjltf-23" value="Najdi slova podle vzoru" style="text;html=1;strokeColor=none;fillColor=none;align=center;verticalAlign=middle;whiteSpace=wrap;rounded=0;fontSize=23;fontStyle=1" vertex="1" parent="1">
          <mxGeometry x="120" y="20" width="270" height="20" as="geometry" />
        </mxCell>
        <mxCell id="emCAjgcez_gLHUzwjltf-24" value="Zadej vzor pro slova" style="rounded=1;whiteSpace=wrap;html=1;fontSize=12;glass=0;strokeWidth=1;shadow=0;fillColor=#fff2cc;strokeColor=#d6b656;" vertex="1" parent="1">
          <mxGeometry x="150" y="200" width="180" height="40" as="geometry" />
        </mxCell>
        <mxCell id="emCAjgcez_gLHUzwjltf-25" value="" style="endArrow=classic;html=1;fontSize=23;exitX=0.5;exitY=1;exitDx=0;exitDy=0;" edge="1" parent="1" source="emCAjgcez_gLHUzwjltf-24" target="emCAjgcez_gLHUzwjltf-16">
          <mxGeometry width="50" height="50" relative="1" as="geometry">
            <mxPoint x="390" y="370" as="sourcePoint" />
            <mxPoint x="440" y="320" as="targetPoint" />
          </mxGeometry>
        </mxCell>
        <mxCell id="emCAjgcez_gLHUzwjltf-28" value="Shoduje se slovo se vzorem?" style="rhombus;whiteSpace=wrap;html=1;shadow=0;fontFamily=Helvetica;fontSize=12;align=center;strokeWidth=1;spacing=6;spacingTop=-4;fillColor=#f8cecc;strokeColor=#b85450;" vertex="1" parent="1">
          <mxGeometry x="190" y="340" width="100" height="80" as="geometry" />
        </mxCell>
        <mxCell id="emCAjgcez_gLHUzwjltf-29" value="" style="endArrow=classic;html=1;fontSize=23;exitX=0.5;exitY=1;exitDx=0;exitDy=0;entryX=0.5;entryY=0;entryDx=0;entryDy=0;" edge="1" parent="1" source="emCAjgcez_gLHUzwjltf-16" target="emCAjgcez_gLHUzwjltf-28">
          <mxGeometry width="50" height="50" relative="1" as="geometry">
            <mxPoint x="390" y="550" as="sourcePoint" />
            <mxPoint x="440" y="500" as="targetPoint" />
          </mxGeometry>
        </mxCell>
        <mxCell id="emCAjgcez_gLHUzwjltf-31" value="Ne" style="text;html=1;strokeColor=none;fillColor=none;align=center;verticalAlign=middle;whiteSpace=wrap;rounded=0;" vertex="1" parent="1">
          <mxGeometry x="190" y="440" width="40" height="20" as="geometry" />
        </mxCell>
        <mxCell id="emCAjgcez_gLHUzwjltf-32" value="" style="endArrow=classic;html=1;fontSize=23;exitX=1;exitY=0.5;exitDx=0;exitDy=0;" edge="1" parent="1" source="emCAjgcez_gLHUzwjltf-28">
          <mxGeometry width="50" height="50" relative="1" as="geometry">
            <mxPoint x="390" y="540" as="sourcePoint" />
            <mxPoint x="350" y="450" as="targetPoint" />
            <Array as="points">
              <mxPoint x="350" y="380" />
            </Array>
          </mxGeometry>
        </mxCell>
        <mxCell id="emCAjgcez_gLHUzwjltf-33" value="Vytiskni slovo na obrazovku" style="rounded=1;whiteSpace=wrap;html=1;fontSize=12;glass=0;strokeWidth=1;shadow=0;fillColor=#fff2cc;strokeColor=#d6b656;" vertex="1" parent="1">
          <mxGeometry x="300" y="450" width="100" height="40" as="geometry" />
        </mxCell>
        <mxCell id="emCAjgcez_gLHUzwjltf-34" value="" style="endArrow=classic;html=1;fontSize=23;exitX=0;exitY=0.5;exitDx=0;exitDy=0;" edge="1" parent="1" source="emCAjgcez_gLHUzwjltf-33">
          <mxGeometry width="50" height="50" relative="1" as="geometry">
            <mxPoint x="390" y="440" as="sourcePoint" />
            <mxPoint x="240" y="470" as="targetPoint" />
          </mxGeometry>
        </mxCell>
        <mxCell id="emCAjgcez_gLHUzwjltf-35" value="Ne" style="text;html=1;strokeColor=none;fillColor=none;align=center;verticalAlign=middle;whiteSpace=wrap;rounded=0;" vertex="1" parent="1">
          <mxGeometry x="310" y="540" width="40" height="20" as="geometry" />
        </mxCell>
        <mxCell id="emCAjgcez_gLHUzwjltf-36" value="Ano" style="text;html=1;strokeColor=none;fillColor=none;align=center;verticalAlign=middle;whiteSpace=wrap;rounded=0;" vertex="1" parent="1">
          <mxGeometry x="200" y="610" width="40" height="20" as="geometry" />
        </mxCell>
      </root>
    </mxGraphModel>
  </diagram>
</mxfile>
